<!-- Generated by IcoMoon.io -->
<svg version="1.1" xmlns="http://www.w3.org/2000/svg" width="19" height="19" viewBox="0 0 19 19">
<title></title>
<g id="icomoon-ignore">
</g>
<path fill="#000" d="M7.579 8.411c0.244-0.176 0.36-0.469 0.36-0.874 0-0.225-0.037-0.409-0.116-0.551-0.082-0.143-0.188-0.255-0.326-0.334-0.135-0.082-0.289-0.139-0.465-0.169-0.173-0.034-0.356-0.049-0.544-0.049h-1.976v2.242h2.138c0.375 0.004 0.686-0.086 0.93-0.266z"></path>
<path fill="#000" d="M7.912 10.436c-0.277-0.21-0.645-0.315-1.103-0.315h-2.299v2.644h2.254c0.21 0 0.405-0.019 0.593-0.060s0.356-0.105 0.499-0.202c0.143-0.094 0.259-0.221 0.345-0.383s0.128-0.371 0.128-0.623c0-0.495-0.139-0.848-0.416-1.061z"></path>
<path fill="#000" d="M17.4 0h-15.6c-0.99 0-1.8 0.81-1.8 1.8v15.6c0 0.99 0.81 1.8 1.8 1.8h15.6c0.99 0 1.8-0.81 1.8-1.8v-15.6c0-0.99-0.81-1.8-1.8-1.8zM12.585 5.051h3.889v0.949h-3.889v-0.949zM10.155 12.87c-0.188 0.356-0.442 0.645-0.757 0.87-0.319 0.225-0.682 0.39-1.091 0.499-0.405 0.109-0.825 0.161-1.252 0.161h-4.654v-9.596h4.522c0.457 0 0.874 0.041 1.253 0.12 0.375 0.079 0.697 0.214 0.968 0.397 0.266 0.184 0.476 0.428 0.626 0.731 0.146 0.3 0.221 0.679 0.221 1.125 0 0.484-0.109 0.885-0.33 1.207s-0.544 0.585-0.979 0.791c0.593 0.169 1.027 0.469 1.316 0.893 0.293 0.427 0.435 0.941 0.435 1.541 0.004 0.491-0.090 0.911-0.277 1.26zM17.989 11.385h-5.014c0 0.548 0.188 1.069 0.473 1.35 0.285 0.277 0.698 0.42 1.234 0.42 0.386 0 0.716-0.098 0.998-0.293 0.277-0.195 0.446-0.401 0.51-0.615h1.68c-0.27 0.836-0.679 1.432-1.238 1.793-0.551 0.36-1.226 0.54-2.010 0.54-0.547 0-1.039-0.090-1.481-0.262-0.443-0.176-0.81-0.424-1.121-0.746-0.304-0.323-0.536-0.709-0.705-1.159-0.165-0.446-0.251-0.945-0.251-1.481 0-0.521 0.086-1.005 0.255-1.455 0.173-0.45 0.412-0.84 0.727-1.163 0.315-0.326 0.69-0.585 1.125-0.776 0.435-0.188 0.915-0.281 1.447-0.281 0.589 0 1.102 0.113 1.545 0.345 0.439 0.229 0.799 0.536 1.084 0.923s0.484 0.825 0.611 1.32c0.124 0.488 0.165 1.001 0.131 1.541z"></path>
<path fill="#000" d="M14.561 8.696c-0.304 0-0.559 0.053-0.757 0.158s-0.36 0.232-0.484 0.382c-0.124 0.154-0.206 0.315-0.255 0.491-0.049 0.169-0.079 0.322-0.086 0.457h3.105c-0.045-0.488-0.214-0.848-0.439-1.099-0.232-0.255-0.615-0.39-1.084-0.39z"></path>
</svg>
